<svg xmlns="http://www.w3.org/2000/svg" viewBox="0 0 48 48" role="img" aria-label="Scuola Sacra Famiglia">
  <defs>
    <linearGradient id="sf-bg" x1="0" y1="0" x2="0" y2="1">
      <stop offset="0" stop-color="#1f5fc0"/>
      <stop offset="1" stop-color="#123E90"/>
    </linearGradient>
  </defs>
  <rect x="2" y="2" width="44" height="44" rx="12" fill="url(#sf-bg)"/>
  <g fill="#ffffff">
    <rect x="6" y="32" width="11" height="9" rx="1.6"/>
    <rect x="18.5" y="26" width="11" height="15" rx="1.6"/>
    <rect x="31" y="20" width="11" height="21" rx="1.6"/>
  </g>
  <g stroke="#D4A017" stroke-width="1.5" stroke-linecap="round" stroke-linejoin="round" fill="none">
    <circle cx="11.5" cy="27" r="2.1" fill="#D4A017" stroke="none"/>
    <path d="M11.5 29.1 L11.5 32 M11.5 32 L9.7 34.6 M11.5 32 L13.3 34.6 M11.5 30 L15.8 27.4"/>
    <circle cx="24" cy="21" r="2.1" fill="#D4A017" stroke="none"/>
    <path d="M24 23.1 L24 26 M24 26 L22.2 28.6 M24 26 L25.8 28.6 M24 24 L15.8 27.4 M24 23.4 L28.3 21"/>
    <circle cx="36.5" cy="15" r="2.1" fill="#D4A017" stroke="none"/>
    <path d="M36.5 17.1 L36.5 20 M36.5 20 L34.7 22.6 M36.5 20 L38.3 22.6 M36.5 18 L28.3 21 M36.5 16.4 L40.2 12"/>
  </g>
  <path d="M41 8.3 L41.8 10.7 L44.2 11.5 L41.8 12.3 L41 14.7 L40.2 12.3 L37.8 11.5 L40.2 10.7 Z" fill="#D4A017"/>
</svg>
